<?xml version="1.0" encoding="UTF-8" standalone="no"?>
<!DOCTYPE svg PUBLIC "-//W3C//DTD SVG 1.1//EN"
 "http://www.w3.org/Graphics/SVG/1.1/DTD/svg11.dtd">
<!-- Generated by graphviz version 5.0.0 (20220707.1540)
 -->
<!-- Title: dependencies Pages: 1 -->
<svg width="735pt" height="174pt"
 viewBox="0.00 0.00 735.00 173.80" xmlns="http://www.w3.org/2000/svg" xmlns:xlink="http://www.w3.org/1999/xlink">
<g id="graph0" class="graph" transform="scale(1 1) rotate(0) translate(4 169.8)">
<title>dependencies</title>
<polygon fill="white" stroke="transparent" points="-4,4 -4,-169.8 731,-169.8 731,4 -4,4"/>
<text text-anchor="middle" x="363.5" y="-8.2" font-family="sans-serif" font-size="14.00">dependencies</text>
<g id="clust1" class="cluster">
<title>cluster_AppModule</title>
<polygon fill="none" stroke="black" stroke-dasharray="1,5" points="8,-32.8 8,-157.8 719,-157.8 719,-32.8 8,-32.8"/>
</g>
<g id="clust6" class="cluster">
<title>cluster_AppModule_providers</title>
<polygon fill="none" stroke="black" points="581,-40.8 581,-92.8 711,-92.8 711,-40.8 581,-40.8"/>
</g>
<g id="clust3" class="cluster">
<title>cluster_AppModule_imports</title>
<polygon fill="none" stroke="black" points="16,-40.8 16,-92.8 573,-92.8 573,-40.8 16,-40.8"/>
</g>
<!-- AuthModule -->
<g id="node1" class="node">
<title>AuthModule</title>
<polygon fill="#8dd3c7" stroke="black" points="564.55,-84.8 561.55,-88.8 540.55,-88.8 537.55,-84.8 477.45,-84.8 477.45,-48.8 564.55,-48.8 564.55,-84.8"/>
<text text-anchor="middle" x="521" y="-62.6" font-family="Times,serif" font-size="14.00">AuthModule</text>
</g>
<!-- AppModule -->
<g id="node6" class="node">
<title>AppModule</title>
<polygon fill="#8dd3c7" stroke="black" points="394.66,-149.8 391.66,-153.8 370.66,-153.8 367.66,-149.8 311.34,-149.8 311.34,-113.8 394.66,-113.8 394.66,-149.8"/>
<text text-anchor="middle" x="353" y="-127.6" font-family="Times,serif" font-size="14.00">AppModule</text>
</g>
<!-- AuthModule&#45;&gt;AppModule -->
<g id="edge1" class="edge">
<title>AuthModule&#45;&gt;AppModule</title>
<path fill="none" stroke="black" d="M521,-84.82C521,-102.17 521,-125.8 521,-125.8 521,-125.8 404.96,-125.8 404.96,-125.8"/>
<polygon fill="black" stroke="black" points="404.96,-122.3 394.96,-125.8 404.96,-129.3 404.96,-122.3"/>
</g>
<!-- HealthModule -->
<g id="node2" class="node">
<title>HealthModule</title>
<polygon fill="#8dd3c7" stroke="black" points="459.37,-84.8 456.37,-88.8 435.37,-88.8 432.37,-84.8 362.63,-84.8 362.63,-48.8 459.37,-48.8 459.37,-84.8"/>
<text text-anchor="middle" x="411" y="-62.6" font-family="Times,serif" font-size="14.00">HealthModule</text>
</g>
<!-- HealthModule&#45;&gt;AppModule -->
<g id="edge2" class="edge">
<title>HealthModule&#45;&gt;AppModule</title>
<path fill="none" stroke="black" d="M378.7,-84.91C378.7,-84.91 378.7,-103.79 378.7,-103.79"/>
<polygon fill="black" stroke="black" points="375.2,-103.79 378.7,-113.79 382.2,-103.79 375.2,-103.79"/>
</g>
<!-- SharedModule -->
<g id="node3" class="node">
<title>SharedModule</title>
<polygon fill="#8dd3c7" stroke="black" points="344.43,-84.8 341.43,-88.8 320.43,-88.8 317.43,-84.8 245.57,-84.8 245.57,-48.8 344.43,-48.8 344.43,-84.8"/>
<text text-anchor="middle" x="295" y="-62.6" font-family="Times,serif" font-size="14.00">SharedModule</text>
</g>
<!-- SharedModule&#45;&gt;AppModule -->
<g id="edge3" class="edge">
<title>SharedModule&#45;&gt;AppModule</title>
<path fill="none" stroke="black" d="M327.69,-84.91C327.69,-84.91 327.69,-103.79 327.69,-103.79"/>
<polygon fill="black" stroke="black" points="324.19,-103.79 327.69,-113.79 331.19,-103.79 324.19,-103.79"/>
</g>
<!-- TodosModule -->
<g id="node4" class="node">
<title>TodosModule</title>
<polygon fill="#8dd3c7" stroke="black" points="228.05,-84.8 225.05,-88.8 204.05,-88.8 201.05,-84.8 133.95,-84.8 133.95,-48.8 228.05,-48.8 228.05,-84.8"/>
<text text-anchor="middle" x="181" y="-62.6" font-family="Times,serif" font-size="14.00">TodosModule</text>
</g>
<!-- TodosModule&#45;&gt;AppModule -->
<g id="edge4" class="edge">
<title>TodosModule&#45;&gt;AppModule</title>
<path fill="none" stroke="black" d="M181,-84.82C181,-102.17 181,-125.8 181,-125.8 181,-125.8 300.92,-125.8 300.92,-125.8"/>
<polygon fill="black" stroke="black" points="300.92,-129.3 310.92,-125.8 300.92,-122.3 300.92,-129.3"/>
</g>
<!-- UsersModule -->
<g id="node5" class="node">
<title>UsersModule</title>
<polygon fill="#8dd3c7" stroke="black" points="115.94,-84.8 112.94,-88.8 91.94,-88.8 88.94,-84.8 24.06,-84.8 24.06,-48.8 115.94,-48.8 115.94,-84.8"/>
<text text-anchor="middle" x="70" y="-62.6" font-family="Times,serif" font-size="14.00">UsersModule</text>
</g>
<!-- UsersModule&#45;&gt;AppModule -->
<g id="edge5" class="edge">
<title>UsersModule&#45;&gt;AppModule</title>
<path fill="none" stroke="black" d="M70,-85.08C70,-106.12 70,-137.8 70,-137.8 70,-137.8 301.24,-137.8 301.24,-137.8"/>
<polygon fill="black" stroke="black" points="301.24,-141.3 311.24,-137.8 301.24,-134.3 301.24,-141.3"/>
</g>
<!-- AppService -->
<g id="node7" class="node">
<title>AppService</title>
<ellipse fill="#fdb462" stroke="black" cx="646" cy="-66.8" rx="56.75" ry="18"/>
<text text-anchor="middle" x="646" y="-62.6" font-family="Times,serif" font-size="14.00">AppService</text>
</g>
<!-- AppService&#45;&gt;AppModule -->
<g id="edge6" class="edge">
<title>AppService&#45;&gt;AppModule</title>
<path fill="none" stroke="black" d="M646,-85.08C646,-106.12 646,-137.8 646,-137.8 646,-137.8 404.67,-137.8 404.67,-137.8"/>
<polygon fill="black" stroke="black" points="404.67,-134.3 394.67,-137.8 404.67,-141.3 404.67,-134.3"/>
</g>
</g>
</svg>
